<svg id="Group_2" data-name="Group 2" xmlns="http://www.w3.org/2000/svg" xmlns:xlink="http://www.w3.org/1999/xlink" width="218.5" height="46.451" viewBox="0 0 218.5 46.451">
  <defs>
    <clipPath id="clip-path">
      <rect id="Rectangle_1" data-name="Rectangle 1" width="218.5" height="46.451" fill="none"/>
    </clipPath>
  </defs>
  <g id="Group_1" data-name="Group 1" clip-path="url(#clip-path)">
    <path id="Path_1" data-name="Path 1" d="M91.027,55.182a5.13,5.13,0,0,1-1.374-3.75V39.58a5.037,5.037,0,0,1,1.374-3.7,5.468,5.468,0,0,1,7.284,0,5.037,5.037,0,0,1,1.375,3.7v.586a.332.332,0,0,1-.093.247.3.3,0,0,1-.216.093l-1.018.062a.272.272,0,0,1-.308-.309v-.772a3.582,3.582,0,0,0-.926-2.577,3.249,3.249,0,0,0-2.469-.972,3.211,3.211,0,0,0-2.438.972,3.582,3.582,0,0,0-.926,2.577V51.555a3.636,3.636,0,0,0,.926,2.593,3.186,3.186,0,0,0,2.438.987,3.237,3.237,0,0,0,2.454-.987,3.6,3.6,0,0,0,.942-2.593v-.71a.273.273,0,0,1,.308-.309l1.018.062a.274.274,0,0,1,.31.309v.525a5.13,5.13,0,0,1-1.375,3.75,5.424,5.424,0,0,1-7.284,0" transform="translate(-38.982 -14.995)" fill="#12242b"/>
    <path id="Path_2" data-name="Path 2" d="M113.488,55.151a5.134,5.134,0,0,1-1.4-3.75V39.7a5.211,5.211,0,0,1,1.389-3.781,4.878,4.878,0,0,1,3.674-1.435,4.982,4.982,0,0,1,3.7,1.435,5.145,5.145,0,0,1,1.42,3.781V51.4a5.1,5.1,0,0,1-1.42,3.75,4.98,4.98,0,0,1-3.7,1.436,4.889,4.889,0,0,1-3.658-1.436m6.174-1.034a3.686,3.686,0,0,0,.972-2.655V39.641a3.744,3.744,0,0,0-.972-2.67,3.3,3.3,0,0,0-2.516-1.034,3.212,3.212,0,0,0-2.469,1.034,3.774,3.774,0,0,0-.957,2.67V51.462a3.716,3.716,0,0,0,.957,2.655,3.235,3.235,0,0,0,2.469,1.019,3.325,3.325,0,0,0,2.516-1.019" transform="translate(-48.735 -14.995)" fill="#12242b"/>
    <path id="Path_3" data-name="Path 3" d="M203.1,55.182a5.127,5.127,0,0,1-1.374-3.75V39.58a5.034,5.034,0,0,1,1.374-3.7,5.467,5.467,0,0,1,7.283,0,5.037,5.037,0,0,1,1.375,3.7v.586a.334.334,0,0,1-.093.247.3.3,0,0,1-.217.093l-1.018.062a.272.272,0,0,1-.308-.309v-.772a3.581,3.581,0,0,0-.926-2.577,3.249,3.249,0,0,0-2.469-.972,3.211,3.211,0,0,0-2.438.972,3.582,3.582,0,0,0-.927,2.577V51.555a3.636,3.636,0,0,0,.927,2.593,3.186,3.186,0,0,0,2.438.987,3.236,3.236,0,0,0,2.454-.987,3.6,3.6,0,0,0,.942-2.593v-.71a.273.273,0,0,1,.308-.309l1.018.062a.274.274,0,0,1,.31.309v.525a5.13,5.13,0,0,1-1.375,3.75,5.423,5.423,0,0,1-7.283,0" transform="translate(-87.713 -14.995)" fill="#12242b"/>
    <path id="Path_4" data-name="Path 4" d="M232.789,35.231v.833a.274.274,0,0,1-.309.309h-4.1a.109.109,0,0,0-.124.123V56.22a.273.273,0,0,1-.309.309h-1.018a.273.273,0,0,1-.309-.309V36.5a.109.109,0,0,0-.123-.123h-3.858a.273.273,0,0,1-.309-.309v-.833a.273.273,0,0,1,.309-.309h9.846a.274.274,0,0,1,.309.309" transform="translate(-96.669 -15.185)" fill="#12242b"/>
    <path id="Path_5" data-name="Path 5" d="M246.187,55.043A5.409,5.409,0,0,1,244.613,51v-.8a.367.367,0,0,1,.37-.37h2.809a.367.367,0,0,1,.37.37v.617a2.988,2.988,0,0,0,.6,1.945,1.915,1.915,0,0,0,1.559.741,2.012,2.012,0,0,0,1.574-.695,2.661,2.661,0,0,0,.617-1.836,2.729,2.729,0,0,0-.339-1.389,4.323,4.323,0,0,0-.957-1.111q-.618-.524-1.975-1.512a27.337,27.337,0,0,1-2.485-1.975,7.449,7.449,0,0,1-1.574-2.083,6.034,6.034,0,0,1-.634-2.824A5.444,5.444,0,0,1,246.1,36a6.209,6.209,0,0,1,8.21.077,5.729,5.729,0,0,1,1.574,4.214v.74a.369.369,0,0,1-.371.37h-2.777a.37.37,0,0,1-.371-.37v-.8a2.926,2.926,0,0,0-.6-1.929,1.965,1.965,0,0,0-1.589-.726,1.926,1.926,0,0,0-1.513.664,2.68,2.68,0,0,0-.586,1.836,2.868,2.868,0,0,0,.632,1.883,14.776,14.776,0,0,0,2.485,2.13,36.133,36.133,0,0,1,2.84,2.268,6.671,6.671,0,0,1,1.481,1.93,5.524,5.524,0,0,1,.525,2.5A5.728,5.728,0,0,1,254.459,55a5.561,5.561,0,0,1-4.136,1.589,5.656,5.656,0,0,1-4.137-1.543" transform="translate(-106.333 -14.995)" fill="#12242b"/>
    <path id="Path_6" data-name="Path 6" d="M292.941,55a5.691,5.691,0,0,1-1.59-4.213V40.258a5.628,5.628,0,0,1,1.59-4.213,5.758,5.758,0,0,1,4.213-1.559,5.857,5.857,0,0,1,4.26,1.559,5.6,5.6,0,0,1,1.605,4.213v.37a.412.412,0,0,1-.108.278.338.338,0,0,1-.262.123l-2.871.124a.327.327,0,0,1-.37-.371v-.771a2.518,2.518,0,0,0-.617-1.759,2.109,2.109,0,0,0-1.636-.679,2.071,2.071,0,0,0-1.605.679,2.516,2.516,0,0,0-.618,1.759v11.05a2.515,2.515,0,0,0,.618,1.759,2.068,2.068,0,0,0,1.605.679,2.107,2.107,0,0,0,1.636-.679,2.517,2.517,0,0,0,.617-1.759v-.772a.369.369,0,0,1,.37-.37l2.871.123a.369.369,0,0,1,.371.37v.371A5.666,5.666,0,0,1,301.414,55a5.788,5.788,0,0,1-4.26,1.59A5.691,5.691,0,0,1,292.941,55" transform="translate(-126.682 -14.995)" fill="#12242b"/>
    <path id="Path_7" data-name="Path 7" d="M318.335,55.064a6.387,6.387,0,0,1-1.59-4.522V35.293a.371.371,0,0,1,.371-.37h2.839a.369.369,0,0,1,.371.37V50.912a3.106,3.106,0,0,0,.618,2.006,2.12,2.12,0,0,0,3.271,0,3.113,3.113,0,0,0,.618-2.006V35.293a.369.369,0,0,1,.37-.37h2.84a.369.369,0,0,1,.371.37V50.542a6.345,6.345,0,0,1-1.605,4.522,6.1,6.1,0,0,1-8.473,0" transform="translate(-137.723 -15.185)" fill="#12242b"/>
    <path id="Path_8" data-name="Path 8" d="M351.218,56.221l-2.623-8.858c-.041-.082-.093-.123-.154-.123H346.8a.136.136,0,0,0-.154.154v8.766a.368.368,0,0,1-.37.371h-2.84a.369.369,0,0,1-.37-.371V35.294a.37.37,0,0,1,.37-.371h5.8a5.148,5.148,0,0,1,4.83,3.01,7.451,7.451,0,0,1,.695,3.287,6.926,6.926,0,0,1-.74,3.3,4.968,4.968,0,0,1-2.069,2.1c-.082.021-.113.083-.092.185l3.025,9.291a.348.348,0,0,1,.031.154c0,.185-.114.278-.34.278H351.62a.388.388,0,0,1-.4-.309M346.65,38.164v6.142a.136.136,0,0,0,.154.154h1.883a2.208,2.208,0,0,0,1.806-.864,3.639,3.639,0,0,0,.695-2.346,3.7,3.7,0,0,0-.695-2.36,2.193,2.193,0,0,0-1.806-.881H346.8a.137.137,0,0,0-.154.155" transform="translate(-149.169 -15.185)" fill="#12242b"/>
    <path id="Path_9" data-name="Path 9" d="M136.662,56.34v-16.7a3.773,3.773,0,0,1,.957-2.671,3.213,3.213,0,0,1,2.469-1.033,3.3,3.3,0,0,1,2.516,1.033,3.745,3.745,0,0,1,.972,2.671v16.7h1.636V39.7a5.144,5.144,0,0,0-1.42-3.781,4.982,4.982,0,0,0-3.7-1.436,4.881,4.881,0,0,0-3.674,1.436,5.21,5.21,0,0,0-1.389,3.781V56.34Z" transform="translate(-58.71 -14.995)" fill="#12242b"/>
    <path id="Path_10" data-name="Path 10" d="M160.342,56.34v-16.7a3.773,3.773,0,0,1,.957-2.671,3.212,3.212,0,0,1,2.469-1.033,3.3,3.3,0,0,1,2.516,1.033,3.745,3.745,0,0,1,.972,2.671v16.7h1.636V39.7a5.144,5.144,0,0,0-1.42-3.781,4.982,4.982,0,0,0-3.7-1.436,4.881,4.881,0,0,0-3.674,1.436,5.21,5.21,0,0,0-1.389,3.781V56.34Z" transform="translate(-69.007 -14.995)" fill="#12242b"/>
    <path id="Path_11" data-name="Path 11" d="M184.211,37.346a3.21,3.21,0,0,1,2.438-.972h4a.273.273,0,0,0,.309-.309v-.833a.273.273,0,0,0-.309-.309h-4a4.872,4.872,0,0,0-3.626,1.389,5.037,5.037,0,0,0-1.375,3.7V51.375a5.131,5.131,0,0,0,1.375,3.75,4.841,4.841,0,0,0,3.626,1.4h4a.273.273,0,0,0,.309-.309v-.833a.274.274,0,0,0-.309-.309h-4a3.183,3.183,0,0,1-2.438-.988,3.634,3.634,0,0,1-.926-2.593V46.436h4.74a.273.273,0,0,0,.309-.309v-.833a.273.273,0,0,0-.309-.309h-4.74V39.923a3.58,3.58,0,0,1,.926-2.577" transform="translate(-78.982 -15.185)" fill="#12242b"/>
    <path id="Path_12" data-name="Path 12" d="M273.433,38.689a2.068,2.068,0,0,1,1.605-.679h4.6a.37.37,0,0,0,.371-.37V35.293a.37.37,0,0,0-.371-.37h-4.6a5.758,5.758,0,0,0-4.213,1.559,5.629,5.629,0,0,0-1.59,4.214V50.727a5.466,5.466,0,0,0,5.8,5.8h4.6a.371.371,0,0,0,.371-.371V53.813a.371.371,0,0,0-.371-.371h-4.6a2.067,2.067,0,0,1-1.605-.679A2.515,2.515,0,0,1,272.815,51V47.27h4.106a.368.368,0,0,0,.37-.37V44.523a.368.368,0,0,0-.37-.371h-4.106v-3.7a2.516,2.516,0,0,1,.618-1.759" transform="translate(-117.065 -15.185)" fill="#12242b"/>
    <path id="Path_13" data-name="Path 13" d="M371.732,38.689a2.068,2.068,0,0,1,1.605-.679h4.6a.37.37,0,0,0,.371-.37V35.293a.37.37,0,0,0-.371-.37h-4.6a5.758,5.758,0,0,0-4.213,1.559,5.63,5.63,0,0,0-1.59,4.214V50.727a5.466,5.466,0,0,0,5.8,5.8h4.6a.371.371,0,0,0,.371-.371V53.813a.371.371,0,0,0-.371-.371h-4.6a2.067,2.067,0,0,1-1.605-.679A2.515,2.515,0,0,1,371.114,51V47.27h4.106a.368.368,0,0,0,.37-.37V44.523a.368.368,0,0,0-.37-.371h-4.106v-3.7a2.515,2.515,0,0,1,.618-1.759" transform="translate(-159.807 -15.185)" fill="#12242b"/>
    <path id="Path_14" data-name="Path 14" d="M69.047,12.1C64.3,10.335,59.669,5.062,54.179,9.86a18.92,18.92,0,0,0-5.558-2.207,11.072,11.072,0,0,0,.371-2.711c0-2.057-1.427-2.1-2.177-2.887S45.614,0,44.488,0V9.766a16.147,16.147,0,0,1,7.188,1.7,7.827,7.827,0,0,0,5.113,6.584l.023,2.712.009.194A21.566,21.566,0,0,1,44.488,40.5v2.864a24.224,24.224,0,0,0,5.549-3.244,7.308,7.308,0,0,1,3.4,1.745c2.257,2-.5,2.925,3.755,4.523A.917.917,0,0,0,58.311,46c2.408-4.338-1.566-8.474-3.661-10.583a24.089,24.089,0,0,0,4.792-14.438c0-.107-.011-.211-.012-.318h.008V15.92c1.69-.661,3.983.214,5.862.281,1.7.062,2.875-1.212,4.115-2.674a.9.9,0,0,0-.369-1.431" transform="translate(-19.344 0)" fill="#127370"/>
    <path id="Path_15" data-name="Path 15" d="M54.205,30.6l-.011-.279-.015-1.094a10.508,10.508,0,0,1-4.831-6.4,13.568,13.568,0,0,0-4.861-.911V47.087A18.791,18.791,0,0,0,54.205,30.6" transform="translate(-19.344 -9.528)" fill="#127370"/>
    <path id="Path_16" data-name="Path 16" d="M37.011,21.912a13.588,13.588,0,0,0-4.86.91,10.507,10.507,0,0,1-4.839,6.408L27.3,30.323l-.011.186a18.821,18.821,0,0,0,9.718,16.579V21.912Z" transform="translate(-11.867 -9.528)" fill="#0a4543"/>
    <path id="Path_17" data-name="Path 17" d="M25.144,40.5A21.562,21.562,0,0,1,12.808,20.981l.012-.3.021-2.639a7.825,7.825,0,0,0,5.116-6.586,16.166,16.166,0,0,1,7.187-1.694V0c-1.126,0-1.576,1.265-2.327,2.056s-2.177.83-2.177,2.887a11.1,11.1,0,0,0,.371,2.711A18.92,18.92,0,0,0,15.453,9.86C9.963,5.062,5.332,10.335.585,12.1a.9.9,0,0,0-.369,1.431c1.24,1.462,2.412,2.736,4.115,2.674,1.878-.067,4.171-.942,5.862-.281v4.743H10.2c0,.106-.012.211-.012.318a24.089,24.089,0,0,0,4.792,14.438c-2.1,2.108-6.07,6.245-3.661,10.583a.917.917,0,0,0,1.117.39c4.258-1.6,1.5-2.527,3.755-4.523a7.308,7.308,0,0,1,3.4-1.745,24.238,24.238,0,0,0,5.549,3.244V40.5" transform="translate(0 0)" fill="#0a4543"/>
  </g>
</svg>
